custom-analysis
version=1
nRows=6
nColumns=98
inDegrees=no

This file contains tibia displacement and acting force.

Units are S.I. units (seconds, meters, Newtons, ...)
Angles are in degrees.

endheader
time	APT	SIT	knee_angle	aACL_R_force	pACL_R_force	aPCL_R_force	pPCL_R_force	aMCL_R_force	mMCL_R_force	pMCL_R_force	aLCL_R_force	mLCL_R_force	pLCL_R_force	aPCL_L_force	pPCL_L_force	aMCL_L_force	aLCL_L_force	aACL_R_length	pACL_R_length	aPCL_R_length	pPCL_R_length	aMCL_R_length	mMCL_R_length	pMCL_R_length	aLCL_R_length	mLCL_R_length	pLCL_R_length	aPCL_L_length	pPCL_L_length	aMCL_L_length	aLCL_L_length	aACL_R_strain	pACL_R_strain	aPCL_R_strain	pPCL_R_strain	aMCL_R_strain	mMCL_R_strain	pMCL_R_strain	aLCL_R_strain	mLCL_R_strain	pLCL_R_strain	aPCL_L_strain	pPCL_L_strain	aMCL_L_strain	aLCL_L_strain	femur_lat_meniscii_r.femur_lat_r.force.X	femur_lat_meniscii_r.femur_lat_r.force.Y	femur_lat_meniscii_r.femur_lat_r.force.Z	femur_lat_meniscii_r.femur_lat_r.torque.X	femur_lat_meniscii_r.femur_lat_r.torque.Y	femur_lat_meniscii_r.femur_lat_r.torque.Z	femur_lat_meniscii_r.meniscus_lat_r.force.X	femur_lat_meniscii_r.meniscus_lat_r.force.Y	femur_lat_meniscii_r.meniscus_lat_r.force.Z	femur_lat_meniscii_r.meniscus_lat_r.torque.X	femur_lat_meniscii_r.meniscus_lat_r.torque.Y	femur_lat_meniscii_r.meniscus_lat_r.torque.Z	femur_med_meniscii_r.femur_med_r.force.X	femur_med_meniscii_r.femur_med_r.force.Y	femur_med_meniscii_r.femur_med_r.force.Z	femur_med_meniscii_r.femur_med_r.torque.X	femur_med_meniscii_r.femur_med_r.torque.Y	femur_med_meniscii_r.femur_med_r.torque.Z	femur_med_meniscii_r.meniscus_med_r.force.X	femur_med_meniscii_r.meniscus_med_r.force.Y	femur_med_meniscii_r.meniscus_med_r.force.Z	femur_med_meniscii_r.meniscus_med_r.torque.X	femur_med_meniscii_r.meniscus_med_r.torque.Y	femur_med_meniscii_r.meniscus_med_r.torque.Z	femur_med_tibia_r.tibia_upper_r.force.X	femur_med_tibia_r.tibia_upper_r.force.Y	femur_med_tibia_r.tibia_upper_r.force.Z	femur_med_tibia_r.tibia_upper_r.torque.X	femur_med_tibia_r.tibia_upper_r.torque.Y	femur_med_tibia_r.tibia_upper_r.torque.Z	femur_med_tibia_r.femur_med_r.force.X	femur_med_tibia_r.femur_med_r.force.Y	femur_med_tibia_r.femur_med_r.force.Z	femur_med_tibia_r.femur_med_r.torque.X	femur_med_tibia_r.femur_med_r.torque.Y	femur_med_tibia_r.femur_med_r.torque.Z	femur_lat_tibia_r.tibia_upper_r.force.X	femur_lat_tibia_r.tibia_upper_r.force.Y	femur_lat_tibia_r.tibia_upper_r.force.Z	femur_lat_tibia_r.tibia_upper_r.torque.X	femur_lat_tibia_r.tibia_upper_r.torque.Y	femur_lat_tibia_r.tibia_upper_r.torque.Z	femur_lat_tibia_r.femur_lat_r.force.X	femur_lat_tibia_r.femur_lat_r.force.Y	femur_lat_tibia_r.femur_lat_r.force.Z	femur_lat_tibia_r.femur_lat_r.torque.X	femur_lat_tibia_r.femur_lat_r.torque.Y	femur_lat_tibia_r.femur_lat_r.torque.Z	femur_lat_meniscii_force_r	femur_med_meniscii_force_r	femur_lat_tibia_force_r	femur_med_tibia_force_r
      0.20642561	      0.01355913	      0.02569509	     80.07628822	      0.00000000	      0.00000000	    950.34636674	    597.37539763	     25.55845066	     10.22184152	      0.00000000	      0.00000000	      0.00000000	      0.00000000	      0.00000000	      0.00000000	      0.00000001	      0.00000000	      0.03096711	      0.02432635	      0.03708645	      0.03387900	      0.06143438	      0.05989261	      0.05651015	      0.05026299	      0.04485167	      0.03986430	      0.01525851	      0.01651186	      0.06550154	      0.04489616	     -0.00123808	     -0.02922535	      0.19267045	      0.13353946	      0.02344575	      0.00165753	     -0.03776481	     -0.10208111	     -0.20360826	     -0.23839813	      0.00000079	     -0.32847694	      0.00000060	     -0.00000086	     99.93575663	     61.59354790	      4.41301619	     -3.16586614	      2.31444491	     39.68829619	    -99.93575663	    -61.59354790	     -4.41301619	      1.59287553	     -2.70101381	      1.32858402	      0.17540827	     -0.00073085	     -0.08602726	      0.03421685	     -0.00276793	      0.06980155	     -0.17540827	      0.00073085	      0.08602726	     -0.00033573	      0.00461018	     -0.00073411	   -904.65074191	   -385.86266413	    318.94769452	     -8.78682914	     22.04945327	      1.96787441	    904.65074191	    385.86266413	   -318.94769452	    135.44355237	    -15.90111338	    364.71454860	   -336.57998722	   -157.83174075	    -91.74462501	      5.15209757	    -11.62091582	      1.09233484	    336.57998722	    157.83174075	     91.74462501	    -40.86388326	      8.25226262	    135.71734494	    117.47508377	      0.19536961	    382.90210551	   1033.92968438
      0.20721303	      0.01353585	      0.02584980	     80.51155734	      0.00000000	      0.00000000	    956.65901165	    602.58311434	     24.71514126	      9.77869203	      0.00000000	      0.00000000	      0.00000000	      0.00000000	      0.00000000	      0.00000000	      0.00000001	      0.00000000	      0.03096975	      0.02434937	      0.03712041	      0.03390539	      0.06145771	      0.05990344	      0.05652542	      0.05022074	      0.04480297	      0.03982183	      0.01525851	      0.01651186	      0.06550154	      0.04489616	     -0.00115316	     -0.02830690	      0.19376279	      0.13442253	      0.02383449	      0.00183874	     -0.03750482	     -0.10283577	     -0.20447295	     -0.23920950	      0.00000079	     -0.32847694	      0.00000060	     -0.00000086	     99.91664343	     61.91267317	      5.09462948	     -3.44099063	      2.32418666	     39.66979557	    -99.91664343	    -61.91267317	     -5.09462948	      1.60083355	     -2.73149936	      1.36952602	      0.12310772	     -0.00212615	     -0.06865089	      0.02729145	     -0.00192531	      0.04900158	     -0.12310772	      0.00212615	      0.06865089	     -0.00024684	      0.00344379	     -0.00055105	   -908.85420617	   -385.78735949	    320.14505891	     -8.69717104	     22.13190231	      2.19758113	    908.85420617	    385.78735949	   -320.14505891	    135.88546442	    -15.95502789	    366.31841561	   -337.93189608	   -157.17367502	    -92.66134717	      5.12846564	    -11.70445960	      1.15262745	    337.93189608	    157.17367502	     92.66134717	    -41.21497046	      8.29298125	    136.23988813	    117.65402664	      0.14097155	    384.04121624	   1037.95024619
      0.20780535	      0.01351636	      0.02596616	     80.83868940	      0.00000000	      0.00000000	    960.63831969	    604.00880117	     24.82972526	      9.67092508	      0.00000000	      0.00000000	      0.00000000	      0.00000000	      0.00000000	      0.00000000	      0.00000001	      0.00000000	      0.03097050	      0.02436588	      0.03714619	      0.03392562	      0.06147467	      0.05991130	      0.05653700	      0.05018902	      0.04476664	      0.03979064	      0.01525851	      0.01651186	      0.06550154	      0.04489616	     -0.00112888	     -0.02764803	      0.19459166	      0.13509920	      0.02411703	      0.00197018	     -0.03730757	     -0.10340244	     -0.20511800	     -0.23980542	      0.00000079	     -0.32847694	      0.00000060	     -0.00000086	    100.46636797	     60.98708909	      4.91827667	     -3.34647487	      2.33161943	     39.89235171	   -100.46636797	    -60.98708909	     -4.91827667	      1.57360431	     -2.73744080	      1.35456117	      0.10617876	     -0.00021032	     -0.06232749	      0.02479640	     -0.00164817	      0.04224700	     -0.10617876	      0.00021032	      0.06232749	     -0.00023062	      0.00304412	     -0.00040239	   -913.05308972	   -378.53493194	    321.22147765	     -8.55602086	     22.21367954	      2.08087955	    913.05308972	    378.53493194	   -321.22147765	    136.19352990	    -16.01300825	    368.02822261	   -340.36912488	   -154.88420453	    -93.56149461	      5.07175463	    -11.80906008	      1.10723058	    340.36912488	    154.88420453	     93.56149461	    -41.52823542	      8.35601768	    137.23474700	    117.63122704	      0.12312062	    385.47893750	   1039.29681855
      0.20839767	      0.01349703	      0.02608244	     81.16592546	      0.00000000	      0.00000000	    965.33388548	    607.82305018	     24.32966031	      9.43701674	      0.00000000	      0.00000000	      0.00000000	      0.00000000	      0.00000000	      0.00000000	      0.00000001	      0.00000000	      0.03097152	      0.02438260	      0.03717154	      0.03394541	      0.06149149	      0.05991906	      0.05654866	      0.05015739	      0.04473054	      0.03975985	      0.01525851	      0.01651186	      0.06550154	      0.04489616	     -0.00109608	     -0.02698072	      0.19540705	      0.13576130	      0.02439719	      0.00209993	     -0.03710913	     -0.10396744	     -0.20575896	     -0.24039359	      0.00000079	     -0.32847694	      0.00000060	     -0.00000086	     98.78741487	     60.18449852	      5.30436813	     -3.49693631	      2.29630708	     39.20973116	    -98.78741487	    -60.18449852	     -5.30436813	      1.56992913	     -2.70975457	      1.36950152	      0.08422378	     -0.00158353	     -0.05366024	      0.02133392	     -0.00131826	      0.03352123	     -0.08422378	      0.00158353	      0.05366024	     -0.00018150	      0.00254164	     -0.00035702	   -916.86731655	   -377.61908913	    321.81593653	     -8.47236444	     22.27013724	      2.21090308	    916.86731655	    377.61908913	   -321.81593653	    136.38671315	    -16.05765668	    369.51225702	   -341.96653142	   -155.15917973	    -94.11848597	      5.06932058	    -11.87961945	      1.17556805	    341.96653142	    155.15917973	     94.11848597	    -41.75390659	      8.39654950	    137.85483364	    115.79837443	      0.09987780	    387.13533689	   1042.50052740
      0.20852362	      0.01349266	      0.02610714	     81.23547011	      0.00000000	      0.00000000	    966.35412365	    608.69101497	     24.19882476	      9.37586710	      0.00000000	      0.00000000	      0.00000000	      0.00000000	      0.00000000	      0.00000000	      0.00000001	      0.00000000	      0.03097160	      0.02438609	      0.03717697	      0.03394967	      0.06149500	      0.05992069	      0.05655115	      0.05015068	      0.04472291	      0.03975340	      0.01525851	      0.01651186	      0.06550154	      0.04489616	     -0.00109326	     -0.02684153	      0.19558179	      0.13590407	      0.02445572	      0.00212709	     -0.03706662	     -0.10408734	     -0.20589451	     -0.24051684	      0.00000079	     -0.32847694	      0.00000060	     -0.00000086	     98.64793191	     60.46840467	      5.35087465	     -3.52293906	      2.29319039	     39.14767225	    -98.64793191	    -60.46840467	     -5.35087465	      1.57841648	     -2.70788562	      1.38758677	      0.07916515	     -0.00094371	     -0.05042014	      0.02004968	     -0.00123728	      0.03150071	     -0.07916515	      0.00094371	      0.05042014	     -0.00017169	      0.00238711	     -0.00031160	   -918.15295145	   -377.52212115	    321.05818708	     -8.44347580	     22.25239207	      2.23469575	    918.15295145	    377.52212115	   -321.05818708	    136.06829269	    -16.06266849	    370.02137712	   -342.32549103	   -155.37655756	    -94.07053784	      5.07001346	    -11.88832548	      1.19627215	    342.32549103	    155.37655756	     94.07053784	    -41.73707086	      8.40333400	    137.99241230	    115.82950528	      0.09386268	    387.52791195	   1043.36290604
      0.20869285	      0.01348664	      0.02614033	     81.32887881	      0.00000000	      0.00000000	    967.71808448	    609.82318726	     24.04756627	      9.30750067	      0.00000000	      0.00000000	      0.00000000	      0.00000000	      0.00000000	      0.00000000	      0.00000001	      0.00000000	      0.03097164	      0.02439073	      0.03718430	      0.03395545	      0.06149969	      0.05992285	      0.05655452	      0.05014167	      0.04471268	      0.03974479	      0.01525851	      0.01651186	      0.06550154	      0.04489616	     -0.00109193	     -0.02665603	      0.19581746	      0.13609719	      0.02453374	      0.00216333	     -0.03700934	     -0.10424830	     -0.20607621	     -0.24068140	      0.00000079	     -0.32847694	      0.00000060	     -0.00000086	     98.33504707	     60.60786046	      5.47538643	     -3.57771272	      2.28540444	     39.01665769	    -98.33504707	    -60.60786046	     -5.47538643	      1.58453401	     -2.70311360	      1.40346312	      0.07706191	     -0.00026488	     -0.04883971	      0.01942637	     -0.00120265	      0.03065657	     -0.07706191	      0.00026488	      0.04883971	     -0.00016798	      0.00231592	     -0.00027569	   -919.28515569	   -376.87815592	    322.18608098	     -8.42633390	     22.30525129	      2.25495817	    919.28515569	    376.87815592	   -322.18608098	    136.50687111	    -16.08634180	    370.46849211	   -343.04985734	   -153.60717071	    -94.42907949	      5.02892164	    -11.92269795	      1.13784847	    343.04985734	    153.60717071	     94.42907949	    -41.84484674	      8.42300142	    138.30305686	    115.64200832	      0.09123555	    387.55027877	   1044.47413211
